<svg width="48" height="40" viewBox="0 0 48 40" fill="none" xmlns="http://www.w3.org/2000/svg">
<path d="M47.6601 20.862C47.5034 20.5439 47.2931 20.2651 47.0416 20.0418C46.7902 19.8185 46.5025 19.6552 46.1955 19.5615C44.4198 19.0422 42.5757 18.9073 40.7572 19.1637C41.8908 14.0523 41.2495 10.027 40.6021 7.73094C40.412 7.04457 40.0066 6.46441 39.465 6.10371C38.9234 5.74301 38.2845 5.62768 37.673 5.78022C35.3554 6.38132 33.1716 7.53066 31.2604 9.15527C29.9984 5.78031 28.0125 2.82982 25.489 0.580679C25.0598 0.204007 24.5351 0 23.9955 0C23.4559 0 22.9311 0.204007 22.502 0.580679C19.9784 2.82982 17.9925 5.78031 16.7306 9.15527C14.8191 7.53108 12.6355 6.38179 10.318 5.78022C9.70653 5.62768 9.06762 5.74301 8.52601 6.10371C7.9844 6.46441 7.57899 7.04457 7.3889 7.73094C6.74144 10.0366 6.10017 14.0618 7.23376 19.1637C5.41728 18.9082 3.57539 19.0431 1.80166 19.5615C1.49468 19.6552 1.20703 19.8185 0.955553 20.0418C0.704072 20.2651 0.493817 20.5439 0.337101 20.862C0.170932 21.1906 0.0633852 21.5541 0.0207612 21.9312C-0.0218628 22.3083 0.00129239 22.6914 0.0888705 23.058C0.759092 25.9162 2.8194 31.3492 9.09135 35.6627C15.3633 39.9762 20.9919 40 24.0017 40C27.0115 40 32.6091 40 38.91 35.6627C45.2109 31.3254 47.2422 25.9138 47.9124 23.058C47.9994 22.6911 48.0219 22.3078 47.9785 21.9307C47.9352 21.5536 47.8269 21.1903 47.6601 20.862ZM38.0267 7.63328C38.2389 7.58267 38.4599 7.62521 38.6463 7.75256C38.8327 7.87992 38.971 8.08289 39.0341 8.32163C39.8615 11.2989 40.689 17.456 36.8062 25.2326C34.6446 29.5652 31.612 32.9021 28.9229 35.103C31.0349 31.9018 33.1035 26.9571 33.1035 19.7997C33.1254 16.8047 32.7143 13.8265 31.8871 10.9869C33.6943 9.36225 35.7907 8.21711 38.0267 7.63328ZM8.9693 8.32163C9.03404 8.08479 9.17314 7.88424 9.35942 7.75916C9.5457 7.63407 9.76579 7.59344 9.9767 7.64519C12.2118 8.22547 14.3082 9.3665 16.1163 10.9869C15.2891 13.8265 14.878 16.8047 14.8999 19.7997C14.8999 26.9571 16.9685 31.9041 19.0805 35.0982C16.3914 32.8974 13.3588 29.5604 11.1972 25.2279C7.31236 17.444 8.13359 11.287 8.9693 8.32163ZM9.94567 34.0454C4.17432 30.0749 2.29191 25.1564 1.69202 22.5769C1.6615 22.4525 1.65328 22.3223 1.66786 22.1941C1.68244 22.0659 1.71952 21.9425 1.77683 21.8314C1.8251 21.7309 1.89045 21.6426 1.96899 21.5718C2.04754 21.501 2.13766 21.4491 2.23399 21.4193C4.0425 20.8968 5.92595 20.8156 7.76332 21.1811C8.2921 22.9167 8.96112 24.5913 9.76157 26.183C12.5086 31.685 16.5176 35.6317 19.7466 37.8802C16.2756 37.4305 12.9312 36.1163 9.94567 34.0287V34.0454ZM24.012 37.9373C22.6638 36.8566 21.4715 35.5384 20.4789 34.0311C17.8725 30.1345 16.5548 25.3517 16.5548 19.7997C16.5548 9.26008 21.4139 3.90095 23.5032 2.08838C23.6468 1.96356 23.8218 1.89604 24.0017 1.89604C24.1816 1.89604 24.3566 1.96356 24.5002 2.08838C26.5895 3.90095 31.4486 9.26008 31.4486 19.7997C31.4486 25.3517 30.1309 30.1345 27.5348 34.0145C26.5422 35.5217 25.35 36.8399 24.0017 37.9207L24.012 37.9373ZM46.3217 22.5769C45.7177 25.1564 43.8394 30.0749 38.0681 34.0454C35.0822 36.1313 31.7378 37.4439 28.2671 37.8921C31.4962 35.6436 35.5072 31.6993 38.2522 26.1949C39.0526 24.6032 39.7216 22.9286 40.2504 21.1931C42.0877 20.8263 43.9714 20.9075 45.7797 21.4312C45.8761 21.461 45.9662 21.5129 46.0447 21.5837C46.1233 21.6545 46.1886 21.7428 46.2369 21.8433C46.3425 22.0618 46.3692 22.3193 46.3114 22.5602L46.3217 22.5769Z" fill="#FF6B9D"/>
</svg>
