<svg width="12" height="13" viewBox="0 0 12 13" fill="none" xmlns="http://www.w3.org/2000/svg">
<path d="M12 6.5C12 6.63261 11.9473 6.75979 11.8536 6.85355C11.7598 6.94732 11.6326 7 11.5 7H6.5V12C6.5 12.1326 6.44732 12.2598 6.35355 12.3536C6.25979 12.4473 6.13261 12.5 6 12.5C5.86739 12.5 5.74021 12.4473 5.64645 12.3536C5.55268 12.2598 5.5 12.1326 5.5 12V7H0.5C0.367392 7 0.240215 6.94732 0.146447 6.85355C0.0526785 6.75979 0 6.63261 0 6.5C0 6.36739 0.0526785 6.24021 0.146447 6.14645C0.240215 6.05268 0.367392 6 0.5 6H5.5V1C5.5 0.867392 5.55268 0.740215 5.64645 0.646447C5.74021 0.552679 5.86739 0.5 6 0.5C6.13261 0.5 6.25979 0.552679 6.35355 0.646447C6.44732 0.740215 6.5 0.867392 6.5 1V6H11.5C11.6326 6 11.7598 6.05268 11.8536 6.14645C11.9473 6.24021 12 6.36739 12 6.5Z" fill="#002A32"/>
</svg>
